<?xml version="1.0" encoding="utf-8"?>
<!-- Generator: Adobe Illustrator 18.1.1, SVG Export Plug-In . SVG Version: 6.00 Build 0)  -->
<svg version="1.1" id="Layer_1" xmlns="http://www.w3.org/2000/svg" xmlns:xlink="http://www.w3.org/1999/xlink" x="0px" y="0px"
	 viewBox="0 0 1280 2940" enable-background="new 0 0 1280 2940" xml:space="preserve">
<polygon fill="#BC0000" points="1280,125 1280,800 881,800 883.9,795 892.9,779.9 920.3,733.5 920.6,733 925.9,724 972.5,645.1 "/>
<polygon fill="#BC0000" points="313.1,2940 0,2746 0,2142 1280,2940 "/>
<polygon fill="#FF0C00" points="1280,800 0,800 0,155.3 68,189.5 100.7,206 412,362.8 424.5,369.1 972.5,645.1 1129.1,724 
	1176,747.6 "/>
<polygon fill="#FF0C00" points="1280,800 1280,1451.5 1075,1347.2 1004.9,1311.5 959.8,1288.5 912.6,1264.5 828.6,1221.7 
	305.5,955.5 305,955.2 134.6,868.5 87.4,844.5 60,830.5 59.5,830.3 0,800 "/>
<polygon fill="#FF0C00" points="0,2142 1280,1555 1280,2142 "/>
<polygon fill="#FF0C00" points="0,2748 1280,2142 0,2142 "/>
</svg>
